<svg xmlns="http://www.w3.org/2000/svg" width="8" height="8" viewBox="0 0 8 8">
  <g id="download" transform="translate(-32.304)">
    <g id="Group_1489" data-name="Group 1489" transform="translate(32.304)">
      <path id="Path_715" data-name="Path 715" d="M40.289,4.435a.193.193,0,0,0-.176-.1H38.024V.167A.18.18,0,0,0,37.833,0H34.783a.18.18,0,0,0-.191.167V4.332h-2.1a.193.193,0,0,0-.176.1.152.152,0,0,0,.041.182l3.8,3.335a.211.211,0,0,0,.27,0l3.815-3.335A.151.151,0,0,0,40.289,4.435Z" transform="translate(-32.304)" fill=""/>
    </g>
  </g>
</svg>
