<?xml version="1.0" encoding="utf-8"?>
<!-- Generator: Adobe Illustrator 23.0.1, SVG Export Plug-In . SVG Version: 6.00 Build 0)  -->
<svg height="20" width="20" version="1.1" id="Layer_1" xmlns="http://www.w3.org/2000/svg" xmlns:xlink="http://www.w3.org/1999/xlink" x="0px" y="0px"
	 viewBox="0 0 100 100" style="enable-background:new 0 0 100 100;" xml:space="preserve">
<g>
	<path class="st0" d="M94,14.6c-2.3-2.3-5.3-3.5-8.5-3.5h-8.3v-3c0-2.5-2.1-4.6-4.6-4.6h-3.3c-2.5,0-4.6,2.1-4.6,4.6v3H35.3v-3
		c0-2.5-2.1-4.6-4.6-4.6h-3.3c-2.5,0-4.6,2.1-4.6,4.6v3h-8.2c-6.7,0-12.1,5.4-12.1,12.1v61.2c0,6.7,5.4,12.1,12.1,12.1h54.7
		c3.3,0,6.6-1.4,8.9-3.7l15.5-15.5c2.4-2.4,3.7-5.6,3.7-8.9V23.3C97.5,19.9,96.2,16.9,94,14.6z M10,84.3V35.4h80V66H75.6
		c-4.7,0-8.5,3.8-8.5,8.5v14.4H14.6C12.1,88.9,10,86.8,10,84.3z"/>
</g>
</svg>
