<?xml version="1.0"?>
<svg xmlns="http://www.w3.org/2000/svg" viewBox="0 0 64 64" width="512" height="512"><g id="Layer_20" data-name="Layer 20"><path d="M62,37H59V6a1,1,0,0,0-1-1H53V4a3,3,0,0,0-6,0V5H43V4a3,3,0,0,0-6,0V5H33V4a3,3,0,0,0-6,0V5H23V4a3,3,0,0,0-6,0V5H13V4A3,3,0,0,0,7,4V5H2A1,1,0,0,0,1,6V54a1,1,0,0,0,1,1H15v7a1,1,0,0,0,1,1H62a1,1,0,0,0,1-1V38A1,1,0,0,0,62,37ZM49,4a1,1,0,0,1,2,0V8a1,1,0,0,1-2,0ZM39,4a1,1,0,0,1,2,0V8a1,1,0,0,1-2,0ZM29,4a1,1,0,0,1,2,0V8a1,1,0,0,1-2,0ZM19,4a1,1,0,0,1,2,0V8a1,1,0,0,1-2,0ZM9,4a1,1,0,0,1,2,0V8A1,1,0,0,1,9,8ZM7,7V8a3,3,0,0,0,6,0V7h4V8a3,3,0,0,0,6,0V7h4V8a3,3,0,0,0,6,0V7h4V8a3,3,0,0,0,6,0V7h4V8a3,3,0,0,0,6,0V7h4V17H3V7Zm8,31V53H3V19H57V37H16A1,1,0,0,0,15,38ZM61,61H17V39H61Z"/><path d="M20,55a3,3,0,0,1,3,3,1,1,0,0,0,1,1H54a1,1,0,0,0,1-1,3,3,0,0,1,3-3,1,1,0,0,0,1-1V46a1,1,0,0,0-1-1,3,3,0,0,1-3-3,1,1,0,0,0-1-1H24a1,1,0,0,0-1,1,3,3,0,0,1-3,3,1,1,0,0,0-1,1v8A1,1,0,0,0,20,55Zm20,1.92v-2.1A3,3,0,0,0,39,49a1,1,0,0,1,0-2h3V45H40V43.08a7,7,0,0,1,0,13.84ZM38,43.08v2.1A3,3,0,0,0,39,51a1,1,0,0,1,0,2H36v2h2v1.92a7,7,0,0,1,0-13.84ZM53.1,43A5,5,0,0,0,57,46.9v6.2A5,5,0,0,0,53.1,57H44.64a9,9,0,0,0,0-14ZM21,46.9A5,5,0,0,0,24.9,43h8.46a9,9,0,0,0,0,14H24.9A5,5,0,0,0,21,53.1Z"/><path d="M51.77,27.36l-5-6a1,1,0,0,0-1.54,0l-5,6A1,1,0,0,0,41,29h2v5a1,1,0,0,0,1,1h4a1,1,0,0,0,1-1V29h2a1,1,0,0,0,.77-1.64ZM48,27a1,1,0,0,0-1,1v5H45V28a1,1,0,0,0-1-1h-.87L46,23.56,48.87,27Z"/><path d="M32.77,21.36a1,1,0,0,0-1.54,0l-5,6A1,1,0,0,0,27,29h2v5a1,1,0,0,0,1,1h4a1,1,0,0,0,1-1V29h2a1,1,0,0,0,.77-1.64ZM34,27a1,1,0,0,0-1,1v5H31V28a1,1,0,0,0-1-1h-.87L32,23.56,34.87,27Z"/></g></svg>
