<?xml version="1.0" encoding="utf-8"?>
<!-- Generator: Adobe Illustrator 23.0.1, SVG Export Plug-In . SVG Version: 6.00 Build 0)  -->
<svg version="1.1" id="Layer_1" xmlns="http://www.w3.org/2000/svg" xmlns:xlink="http://www.w3.org/1999/xlink" x="0px" y="0px"
	 viewBox="0 0 900 900" style="enable-background:new 0 0 900 900;" xml:space="preserve">
<g>
	<path d="M345,0H75C33.7,0,0,33.7,0,75v270c0,41.3,33.7,75,75,75h270c41.3,0,75-33.7,75-75V75C420,33.7,386.3,0,345,0z M385,322.5
		c0,34.4-28.1,62.5-62.5,62.5h-225C63.1,385,35,356.9,35,322.5v-225C35,63.1,63.1,35,97.5,35h225c34.4,0,62.5,28.1,62.5,62.5V322.5z
		"/>
	<path d="M345,480H75c-41.3,0-75,33.7-75,75v270c0,41.3,33.7,75,75,75h270c41.3,0,75-33.7,75-75V555C420,513.8,386.3,480,345,480z
		 M385,802.5c0,34.4-28.1,62.5-62.5,62.5h-225C63.1,865,35,836.9,35,802.5v-225c0-34.4,28.1-62.5,62.5-62.5h225
		c34.4,0,62.5,28.1,62.5,62.5V802.5z"/>
	<path d="M825,480H555c-41.3,0-75,33.7-75,75v270c0,41.3,33.7,75,75,75h270c41.3,0,75-33.7,75-75V555C900,513.8,866.3,480,825,480z
		 M865,802.5c0,34.4-28.1,62.5-62.5,62.5h-225c-34.4,0-62.5-28.1-62.5-62.5v-225c0-34.4,28.1-62.5,62.5-62.5h225
		c34.4,0,62.5,28.1,62.5,62.5V802.5z"/>
	<path d="M825,0H555c-41.3,0-75,33.7-75,75v270c0,41.3,33.7,75,75,75h270c41.3,0,75-33.7,75-75V75C900,33.7,866.3,0,825,0z
		 M865,322.5c0,34.4-28.1,62.5-62.5,62.5h-225c-34.4,0-62.5-28.1-62.5-62.5v-225c0-34.4,28.1-62.5,62.5-62.5h225
		c34.4,0,62.5,28.1,62.5,62.5V322.5z"/>
</g>
</svg>
