<?xml version="1.0" encoding="utf-8"?>
<!-- Generator: Adobe Illustrator 23.0.1, SVG Export Plug-In . SVG Version: 6.00 Build 0)  -->
<svg
width="45" height="45" 
version="1.1" id="Capa_1" xmlns="http://www.w3.org/2000/svg" xmlns:xlink="http://www.w3.org/1999/xlink" x="0px" y="0px"
	 viewBox="0 0 512 512" style="enable-background:new 0 0 512 512;" xml:space="preserve">

<g>
	<g>
		<g>
			<path class="st0" d="M496,252.6c-17.1-14.1-44.2-15.3-61.9,3.7L390,303.7c-5.7-18.3-22.8-31.7-43-31.7h-78.7
				c-6,0-8-2.3-18.3-10.3c-39.5-34.5-98.9-34.4-138.3,0.3l-28.9,25.5c-13-6.9-28.2-7-41.2-0.5L8.3,303.6
				c-7.4,3.7-10.4,12.7-6.7,20.1l90,180c3.7,7.4,12.7,10.4,20.1,6.7l33.2-16.6c16.3-8.2,25.4-24.8,24.9-41.8H347
				c32.9,0,64.3-15.7,84-42l72-96C517,295.4,514.7,268.1,496,252.6z M131.5,467l-19.7,9.9L35.1,323.7l19.8-9.9
				c7.4-3.7,16.4-0.7,20.1,6.7l63.2,126.3C141.9,454.3,138.9,463.3,131.5,467z M479,296l-72,96c-14.1,18.8-36.5,30-60,30H159.3
				l-56.2-112.4l28.4-25c28.2-24.8,70.8-24.8,99.1,0c16.6,14.6,27,17.4,37.8,17.4H347c8.3,0,15,6.7,15,15s-6.7,15-15,15h-76.6
				c-8.3,0-15,6.7-15,15s6.7,15,15,15H357c12.4,0,24.4-5.2,32.9-14.3l66-70.9c6-6.5,15.3-5.9,21-1C482.9,281,483.6,289.9,479,296z"
				/>
		</g>
	</g>
	<g>
		<g>
			<path class="st0" d="M315.4,102.4C325.7,91.6,332,77,332,61c0-33-26.7-61-60-61c-33.1,0-61,27.9-61,61c0,15.5,6.1,30.2,17.1,41.5
				C200.7,117.9,181,147.4,181,182v15c0,8.3,6.7,15,15,15h151c8.3,0,15-6.7,15-15v-15C362,148.1,343.3,118.1,315.4,102.4z M272,30
				c16.3,0,30,14.2,30,31c0,16.5-13.5,30-30,30c-16.8,0-31-13.7-31-30C241,44.5,255.5,30,272,30z M211,182c0-33.1,27.9-61,61-61
				c33.1,0,60,27.4,60,61H211z"/>
		</g>
	</g>
</g>
</svg>
