<?xml version="1.0" encoding="utf-8"?>
<!-- Generator: Adobe Illustrator 23.0.1, SVG Export Plug-In . SVG Version: 6.00 Build 0)  -->
<svg
height="25"
width="25" 
version="1.1" id="Layer_1" xmlns="http://www.w3.org/2000/svg" xmlns:xlink="http://www.w3.org/1999/xlink" x="0px" y="0px"
	 viewBox="0 0 30 30" style="enable-background:new 0 0 30 30;" xml:space="preserve">

<title>Bin Delete remove trash user interface</title>
<g>
	<path class="st0" d="M12,3.1c0-0.6,0.4-1,1-1h4c0.6,0,1,0.4,1,1s-0.4,1-1,1h-4C12.4,4.1,12,3.7,12,3.1z M26,6.1c0,0.6-0.4,1-1,1h-1
		v18c0,1.7-1.3,3-3,3H9c-1.7,0-3-1.3-3-3v-18H5c-0.6,0-1-0.4-1-1s0.4-1,1-1h20C25.6,5.1,26,5.5,26,6.1z M22,7.1H8v18
		c0,0.6,0.4,1,1,1h12c0.6,0,1-0.4,1-1V7.1z M12,23.1c0.6,0,1-0.4,1-1v-11c0-0.6-0.4-1-1-1s-1,0.4-1,1v11C11,22.7,11.4,23.1,12,23.1z
		 M18,23.1c0.6,0,1-0.4,1-1v-11c0-0.6-0.4-1-1-1s-1,0.4-1,1v11C17,22.7,17.4,23.1,18,23.1z"/>
</g>
</svg>
