<?xml version="1.0" encoding="utf-8"?>
<!-- Generator: Adobe Illustrator 23.0.1, SVG Export Plug-In . SVG Version: 6.00 Build 0)  -->
<svg
	height="60" width="60"
	version="1.1" id="Layer_1" xmlns="http://www.w3.org/2000/svg" xmlns:xlink="http://www.w3.org/1999/xlink" x="0px" y="0px"
	 viewBox="0 0 70 70" style="enable-background:new 0 0 70 70;" xml:space="preserve">

<g>
	<polygon class="st0" points="25.2,16 25.7,16.5 25.9,16.8 	"/>
	<path class="st0" d="M34.1,13.8v-2c-2.6,0-5.1,0.7-7.3,1.9l1,1.7C29.6,14.4,31.8,13.8,34.1,13.8z"/>
	<path class="st0" d="M55.4,47.1L41,44.2v-1.8c3.1-1.8,5.2-4.8,5.8-8.5c2.4-0.4,4.2-2.4,4.2-4.9V18.1c0-2.7-1.7-5.1-4.3-6V12
		c-2.5-4.9-7.5-8-13.1-8C25.5,4,19,10.5,19,18.6V29c0,2.5,1.8,4.5,4.2,4.9c0.6,3.6,2.8,6.7,5.8,8.5v1.8l-14.4,2.9
		C11.4,47.7,9,50.6,9,53.9V66h52V53.9C61,50.6,58.6,47.7,55.4,47.1z M41.9,46.4l-1.5,6l-3.8-2.5l3.8-3.8L41.9,46.4z M32.8,61.3
		l4.7,1.6l0.2,1.1h-5.5L32.8,61.3z M33.3,59.4l0.5-2.4h2.4l0.8,3.6L33.3,59.4z M36.2,55h-2.4l-0.6-2.6l1.9-1.2l1.9,1.2L36.2,55z
		 M47,31.8v-5.6c1.2,0.4,2,1.5,2,2.8S48.2,31.4,47,31.8z M21,29c0-1.3,0.8-2.4,2-2.8v5.6C21.8,31.4,21,30.3,21,29z M23,18.6v0.2
		c0,0.1,0,0.2,0,0.2v5.1c-0.7,0.2-1.4,0.5-2,0.9v-6.4C21,11.7,26.6,6,33.6,6c4.8,0,9.1,2.7,11.3,7l0.4,0.9l0.4,0.1
		c1.9,0.5,3.2,2.2,3.2,4.2V25c-0.6-0.4-1.3-0.8-2-0.9V23c0-1.5-0.5-3-1.4-4.2C44.3,17,42.2,16,40,16c-1.5,0-2.9,0.3-4.2,1l-7.5,3.8
		C28,21,27.6,21,27.3,21C26,21,25,20,25,18.8v-0.2c0-0.7,0.3-1.3,0.9-1.8l-0.2-0.2l-1.1-1.3C23.6,16.1,23,17.3,23,18.6z M25,32v-9.6
		c1.2,0.7,2.8,0.9,4.1,0.2l7.5-3.8c1-0.5,2.2-0.8,3.3-0.8c1.6,0,3.1,0.7,4,2c0.6,0.9,1,1.9,1,3v9c0,5.5-4.5,10-10,10S25,37.5,25,32z
		 M35,44c1.4,0,2.7-0.3,4-0.7v1.3l-4,4l-4-4v-1.3C32.3,43.7,33.6,44,35,44z M29.7,46.1l3.8,3.8l-3.8,2.5l-1.5-6L29.7,46.1z M11,53.9
		c0-2.4,1.7-4.4,4-4.9l11.1-2.2l2.2,8.8l3-2L32,56l-1.8,8H21V54h-2v10h-8V53.9z M59,64h-8V54h-2v10h-9.2L38,56l0.6-2.4l3,2l2.2-8.8
		L55,49c2.3,0.5,4,2.5,4,4.9V64z"/>
	<circle class="st0" cx="41" cy="26" r="1"/>
	<circle class="st0" cx="29" cy="26" r="1"/>
	<path class="st0" d="M40,33h-2c0,1.7-1.3,3-3,3s-3-1.3-3-3h-2c0,2.8,2.2,5,5,5S40,35.8,40,33z"/>
	<rect x="17" y="35" class="st0" width="2" height="2"/>
	<rect x="15" y="37" class="st0" width="2" height="2"/>
	<rect x="17" y="39" class="st0" width="2" height="2"/>
	<rect x="19" y="37" class="st0" width="2" height="2"/>
	<rect x="56" y="36" class="st0" width="2" height="2"/>
	<rect x="54" y="38" class="st0" width="2" height="2"/>
	<rect x="56" y="40" class="st0" width="2" height="2"/>
	<rect x="58" y="38" class="st0" width="2" height="2"/>
	<rect x="55" y="4" class="st0" width="2" height="2"/>
	<rect x="53" y="6" class="st0" width="2" height="2"/>
	<rect x="55" y="8" class="st0" width="2" height="2"/>
	<rect x="57" y="6" class="st0" width="2" height="2"/>
	<rect x="12" y="8" class="st0" width="2" height="2"/>
	<rect x="10" y="10" class="st0" width="2" height="2"/>
	<rect x="12" y="12" class="st0" width="2" height="2"/>
	<rect x="14" y="10" class="st0" width="2" height="2"/>
</g>
</svg>
