<?xml version="1.0" encoding="utf-8"?>
<!-- Generator: Adobe Illustrator 23.0.1, SVG Export Plug-In . SVG Version: 6.00 Build 0)  -->
<svg 
height="60"
width="60"
version="1.1" id="Layer_1" xmlns="http://www.w3.org/2000/svg" xmlns:xlink="http://www.w3.org/1999/xlink" x="0px" y="0px"
	 viewBox="0 0 511 511" style="enable-background:new 0 0 511 511;" xml:space="preserve">

<g>
	<path class="st0" d="M313.8,290.9l-9.4-3.5l-21,63c-0.6,1.8-1,3.7-1.2,5.6L272,474.3c-1.2,14.2,9.9,26.5,24.3,26.5
		c12.5,0,23.1-9.6,24.2-22.2l10.1-115.4l22.1-65.8C339.5,303,324.3,300.3,313.8,290.9z"/>
	<path class="st0" d="M476.3,173.1c6.6-15-0.2-32.4-15.1-39c-9.2-4-36.2-16-48.3-21.3c-4.7-2.1-9.6-2.8-14.4-2.4
		c1.8,6.8,1.3,14-1.6,20.6l-33,75.2l21-12.4l29.3-43.2l-21.7,58.5l-64.1,37.7c-9.3,5.5-12.4,17.4-6.9,26.7
		c5.4,9.2,17.4,12.4,26.7,6.9l70.1-41.2c3.9-2.3,6.8-5.8,8.4-10l24.1-65l-8.1,70.9c-1.5,13.2-13.3,16.8-15.7,18.8l-60,35.2
		l-4.1,79.7c-0.2,3.9,0.6,7.9,2.2,11.5l49.2,106.2c5.7,12.2,20.1,17.5,32.3,11.9c12.2-5.7,17.5-20.1,11.9-32.4l-46.7-100.7l2.7-53.4
		L476.3,173.1z"/>
	<path class="st0" d="M511,72.7c0,24.2-19.6,43.8-43.8,43.8s-43.8-19.6-43.8-43.8s19.6-43.8,43.8-43.8S511,48.5,511,72.7z"/>
	<path class="st0" d="M185.2,224.9C226,242.9,304,276.5,304,276.5c-6.1-16.3,0.2-35.1,15.7-44.2l21.4-12.6l41.6-94.8
		c3.5-8-0.1-17.3-8.1-20.8L260.4,53.8c-8-3.5-17.3,0.2-20.8,8.1l-62.5,142.3C173.6,212.1,177.2,221.4,185.2,224.9z"/>
	<path class="st0" d="M201.6,249.3h-176V134.8h165.1c36.6-83.1,34.5-79.1,36.5-82.5V23c0-7.1-5.7-12.8-12.8-12.8H12.8
		C5.7,10.3,0,16,0,23v420.6c0,7.1,5.7,12.8,12.8,12.8h9.9V473c0,3.5,2.9,6.4,6.4,6.4H42c3.5,0,6.4-2.8,6.4-6.4v-16.6h126.2V473
		c0,3.5,2.8,6.4,6.4,6.4h12.9c3.5,0,6.4-2.8,6.4-6.4v-16.6h14.2c7.1,0,12.8-5.7,12.8-12.8V260.3l-25.6-11.3L201.6,249.3L201.6,249.3
		z M25.6,35.8h176V109h-176C25.6,109,25.6,35.8,25.6,35.8z M201.6,430.8h-176V274.9h176V430.8z"/>
</g>
</svg>
