<?xml version="1.0" encoding="utf-8"?>
<!-- Generator: Adobe Illustrator 23.0.1, SVG Export Plug-In . SVG Version: 6.00 Build 0)  -->
<svg height="45" width="45" version="1.1" id="Layer_1" xmlns="http://www.w3.org/2000/svg" xmlns:xlink="http://www.w3.org/1999/xlink" x="0px" y="0px"
	 viewBox="0 0 100 100" style="enable-background:new 0 0 100 100;" xml:space="preserve">

<g>
	<title>46</title>
	<path class="st0" d="M6.6,5.2C5.6,5.6,5,6.5,5,7.5v85C5,93.9,6.1,95,7.5,95c0.7,0,1.3-0.3,1.8-0.8l3.6-3.8l3.6,3.8c1,1,2.6,1,3.6,0
		l3.6-3.8l3.6,3.8c1,1,2.6,1,3.6,0l3.6-3.8l3.6,3.8c1,1,2.6,1,3.6,0l3.6-3.8c-1.1-1.2-2.2-2.6-3.1-4L40,88.9l-3.6-3.8
		c-1-1-2.6-1-3.6,0l-3.6,3.8l-3.6-3.8c-1-1-2.6-1-3.6,0l-3.6,3.8l-3.6-3.8c-1-1-2.5-1-3.5-0.1c0,0-0.1,0.1-0.1,0.1L10,86.3V13.7
		l1.1,1.2c1,1,2.5,1,3.5,0.1c0,0,0.1-0.1,0.1-0.1l3.6-3.8l3.6,3.8c1,1,2.5,1,3.5,0.1c0,0,0.1-0.1,0.1-0.1l3.6-3.8l3.6,3.8
		c1,1,2.6,1,3.6,0l3.6-3.8l3.6,3.8c1,1,2.5,1,3.5,0.1c0,0,0.1-0.1,0.1-0.1l3.6-3.8l3.6,3.8c1,1,2.6,1,3.6,0l3.6-3.8l3.6,3.8
		c1,1,2.6,1,3.6,0l1.1-1.2v22.9c1.7,0.1,3.4,0.3,5,0.7V7.5C75,6.1,73.9,5,72.5,5c-0.7,0-1.3,0.3-1.8,0.8l-3.6,3.8l-3.6-3.8
		c-1-1-2.6-1-3.6,0l-3.6,3.8l-3.6-3.8c-1-1-2.6-1-3.6,0l-3.6,3.8l-3.6-3.8c-1-1-2.5-1-3.5-0.1c0,0-0.1,0.1-0.1,0.1l-3.6,3.8L31,5.8
		c-1-1-2.6-1-3.6,0l-3.6,3.8l-3.6-3.8c-1-1-2.5-1-3.5-0.1c0,0-0.1,0.1-0.1,0.1l-3.6,3.8L9.3,5.8C8.6,5,7.5,4.8,6.6,5.2z"/>
	<path class="st0" d="M68.3,41.6c-14.7,0-26.7,12-26.7,26.7C41.6,83,53.6,95,68.3,95C83,95,95,83,95,68.3c0,0,0,0,0,0
		C95,53.6,83,41.6,68.3,41.6z M69.2,65.6c7.8,2.5,9.4,6.4,9.4,9.3c0,4.1-3,7.3-7.4,8.2V87h-5.8v-4c-4.3-1.1-7.4-4.5-7.4-8.6h5.8
		c0,1.7,2.1,3.2,4.6,3.2c2.2,0,4.5-1,4.5-2.8c0-1.2-2.1-2.7-5.4-3.8c-7.8-2.5-9.4-6.4-9.4-9.3c0-4.1,3-7.3,7.4-8.2v-3.9h5.8v4
		c4.3,1.1,7.4,4.5,7.4,8.6h-5.8c0-1.7-2.1-3.2-4.6-3.2c-2.2,0-4.5,1-4.5,2.8C63.8,63,65.9,64.5,69.2,65.6z"/>
	<rect x="19.5" y="25.5" class="st0" width="36.5" height="4"/>
	<path class="st0" d="M19.5,40.5h33.6c0.9-0.5,1.9-1,2.8-1.4v-2.6H19.5L19.5,40.5z"/>
	<path class="st0" d="M19.5,51.5h21.9c0.9-1.4,1.9-2.7,3-4H19.5L19.5,51.5z"/>
</g>
</svg>
