<?xml version="1.0" encoding="iso-8859-1"?>
<!-- Generator: Adobe Illustrator 19.0.0, SVG Export Plug-In . SVG Version: 6.00 Build 0)  -->
<svg version="1.1" id="Capa_1" xmlns="http://www.w3.org/2000/svg" xmlns:xlink="http://www.w3.org/1999/xlink" x="0px" y="0px"
	 viewBox="0 0 512 512" style="enable-background:new 0 0 512 512;" xml:space="preserve">
<g>
	<g>
		
			<rect x="380.559" y="190.33" transform="matrix(0.6684 -0.7438 0.7438 0.6684 -15.5118 379.6992)" width="75.063" height="33.833"/>
	</g>
</g>
<g>
	<g>
		
			<rect x="289.289" y="182.021" transform="matrix(0.6063 -0.7953 0.7953 0.6063 -58.5896 332.2115)" width="33.834" height="86.509"/>
	</g>
</g>
<g>
	<g>
		
			<rect x="141.991" y="241.615" transform="matrix(0.5221 -0.8529 0.8529 0.5221 -129.4158 286.1034)" width="97.191" height="33.833"/>
	</g>
</g>
<g>
	<g>
		<path d="M239.648,145.48c-26.739,0-48.493,21.754-48.493,48.493c0,13.629,4.703,25.239,13.979,34.515
			c0.4,0.4,0.818,0.778,1.252,1.133c10.567,8.644,21.444,12.845,33.263,12.845c23.728,0,43.531-16.623,47.552-39.703
			c0.942-3.598,0.942-6.665,0.942-8.791C288.141,167.235,266.387,145.48,239.648,145.48z M254.308,194.718
			c-0.164,0.609-0.288,1.224-0.383,1.849c-1.032,6.992-7.037,12.067-14.277,12.067c-3.592,0-7.054-1.432-11.142-4.635
			c-2.131-2.312-3.519-5.024-3.519-10.026c0-8.08,6.575-14.661,14.661-14.661s14.661,6.575,14.661,14.661
			C254.308,194.222,254.308,194.47,254.308,194.718z"/>
	</g>
</g>
<g>
	<g>
		<path d="M176.595,287.464c-0.265-0.242-0.536-0.474-0.812-0.694c-9.625-7.703-20.204-11.605-31.43-11.605
			c-26.739,0-48.493,21.754-48.493,48.499c0,26.745,21.754,48.493,48.493,48.493s48.493-21.749,48.493-48.493
			C192.846,310.251,186.773,296.717,176.595,287.464z M144.352,338.332c-8.08,0-14.661-6.575-14.661-14.661
			s6.575-14.666,14.661-14.666c3.349,0,6.4,1.184,9.834,3.829c2.859,2.797,4.827,7.184,4.827,10.838
			C159.013,331.757,152.433,338.332,144.352,338.332z"/>
	</g>
</g>
<g>
	<g>
		<path d="M464.634,106.578c-0.192-0.006-0.378-0.006-0.564-0.006c-26.745,0-48.493,21.754-48.493,48.493
			c0,13.245,4.443,24.591,13.212,33.731c2.848,3.496,6.49,6.456,10.618,8.644c7.347,4.438,15.45,6.682,24.1,6.682
			c23.734,0,43.543-16.634,47.552-39.725C512,160.784,512,157.626,512,155.63C512,129.455,490.753,107.452,464.634,106.578z
			 M478.162,156.369c-0.158,0.609-0.282,1.224-0.378,1.849c-1.032,6.992-7.043,12.067-14.277,12.067
			c-2.605,0-4.641-0.581-6.823-1.94c-0.457-0.288-1.15-0.637-1.635-0.874c-0.479-0.637-1.004-1.246-1.568-1.81
			c-2.447-2.442-4.071-5.182-4.071-10.595c0-7.99,6.423-14.509,14.379-14.661c7.951,0.417,14.379,7.189,14.373,15.219
			C478.162,155.872,478.167,156.121,478.162,156.369z"/>
	</g>
</g>
<g>
	<g>
		<path d="M399.078,217.549c-0.203-0.152-0.412-0.299-0.62-0.44c-7.877-5.25-16.73-7.911-26.299-7.911
			c-22.532,0-42.048,15.766-47.433,38.197c-1.06,4.269-1.06,8.075-1.06,10.855c0,26.745,21.754,48.499,48.493,48.499
			s48.493-21.754,48.488-48.493C420.646,242.439,412.786,227.603,399.078,217.549z M372.159,272.922
			c-8.086,0-14.661-6.58-14.661-14.666c0-0.976,0-2.312,0.096-2.819c1.483-6.169,6.953-12.405,14.565-12.405
			c2.724,0,5.035,0.648,7.234,2.036c2.464,1.883,7.426,6.502,7.426,13.189C386.819,266.341,380.245,272.922,372.159,272.922z"/>
	</g>
</g>
<g>
	<g>
		<path d="M60.899,36.652c-9.343,0-16.916,7.573-16.916,16.916v404.863c0,9.343,7.573,16.916,16.916,16.916
			s16.916-7.573,16.916-16.916V53.568C77.815,44.225,70.242,36.652,60.899,36.652z"/>
	</g>
</g>
<g>
	<g>
		<path d="M493.956,397.533H16.916C7.573,397.533,0,405.106,0,414.449c0,9.343,7.573,16.916,16.916,16.916h477.04
			c9.343,0,16.916-7.573,16.916-16.916C510.872,405.106,503.299,397.533,493.956,397.533z"/>
	</g>
</g>
<g>
</g>
<g>
</g>
<g>
</g>
<g>
</g>
<g>
</g>
<g>
</g>
<g>
</g>
<g>
</g>
<g>
</g>
<g>
</g>
<g>
</g>
<g>
</g>
<g>
</g>
<g>
</g>
<g>
</g>
</svg>
