<svg id="Group_1510" data-name="Group 1510" xmlns="http://www.w3.org/2000/svg" width="512" height="512" viewBox="0 0 512 512">
  <g id="Group_1507" data-name="Group 1507">
    <g id="Group_1506" data-name="Group 1506">
      <path id="Path_716" data-name="Path 716" d="M446.575,0H65.425A65.5,65.5,0,0,0,0,65.426V446.575A65.5,65.5,0,0,0,65.425,512h381.15A65.5,65.5,0,0,0,512,446.574V65.426A65.5,65.5,0,0,0,446.575,0Zm35.267,446.575a35.307,35.307,0,0,1-35.267,35.267H65.425a35.308,35.308,0,0,1-35.268-35.267V391.568l99.255-84.451a9.745,9.745,0,0,1,12.562-.075l62.174,51.628a15.081,15.081,0,0,0,20.3-.946L372.181,209.77a9.761,9.761,0,0,1,14.486.744L481.843,327.7V446.575Zm0-166.71L410.076,191.5a39.918,39.918,0,0,0-59.236-3.039L212.832,326.681l-51.59-42.839a39.849,39.849,0,0,0-51.373.308L30.157,351.972V65.426A35.308,35.308,0,0,1,65.425,30.158h381.15a35.307,35.307,0,0,1,35.267,35.268Z" fill="#9a9a9a"/>
    </g>
  </g>
  <g id="Group_1509" data-name="Group 1509">
    <g id="Group_1508" data-name="Group 1508">
      <path id="Path_717" data-name="Path 717" d="M161.174,62.995a72.713,72.713,0,1,0,72.713,72.713A72.8,72.8,0,0,0,161.174,62.995Zm0,115.269a42.556,42.556,0,1,1,42.556-42.556A42.6,42.6,0,0,1,161.174,178.264Z" fill="#9a9a9a"/>
    </g>
  </g>
</svg>
