<?xml version="1.0" encoding="utf-8"?>
<!-- Generator: Adobe Illustrator 23.0.1, SVG Export Plug-In . SVG Version: 6.00 Build 0)  -->
<svg
height="60"
width="60" 
version="1.1" id="Capa_1" xmlns="http://www.w3.org/2000/svg" xmlns:xlink="http://www.w3.org/1999/xlink" x="0px" y="0px"
	 viewBox="0 0 513 513" style="enable-background:new 0 0 513 513;" xml:space="preserve">

<g>
	<g>
		<path class="st0" d="M337.3,312.1h-96.2v-86.9c0-4.7-3.1-7.8-7.8-7.8s-7.8,3.1-7.8,7.8V361l-1.6-0.8L173.4,268
			c-6.2-14.7-20.2-24-35.7-24H34.7c-4.7,0-7.8,3.1-7.8,7.8v71.4c-15.5,3.1-26.4,17.1-26.4,33.4c0,38.8,0,69,0,110.2
			c0,4.7,3.1,7.8,7.8,7.8h19.4c1.6,20.9,19.4,38,41.9,38c21.7,0,39.6-17.1,41.9-38h27.2c2.3,21.7,20.2,38,41.9,38s39.6-17.1,41.9-38
			h10.8c4.7,0,7.8-3.9,7.8-7.8c0-77.6,0-60.5,0-138.9h96.2c4.7,0,7.8-3.1,7.8-7.8S341.9,312.1,337.3,312.1z M42.5,258.6h95.4v1.6
			c9.3,0,17.8,5.4,21.7,14.7c0,0,0,0.8,0.8,0.8l38.8,71.4l-0.8-0.8c-3.9-1.6-8.5-1.6-11.6,0.8c-3.9,2.3-5.4,6.2-5.4,10.1V375h-61.3
			v-38c0-8.5-7-15.5-15.5-15.5H42.5V258.6z M69.6,496.8c-14.7,0-26.4-11.6-26.4-26.4c0-14.7,11.6-26.4,26.4-26.4S96,455.6,96,470.4
			C95.9,485.1,83.6,496.8,69.6,496.8z M180.6,496.8c-14.7,0-26.4-11.6-26.4-26.4c0-14.7,11.6-26.4,26.4-26.4s26.4,11.6,26.4,26.4
			C206.9,485.1,195.3,496.8,180.6,496.8z M225.6,458.8h-5.4c-5.4-17.8-20.9-30.3-40.3-30.3s-35.7,13.2-40.3,30.3h-30.3
			c-5.4-17.8-20.9-30.3-40.3-30.3s-35.7,13.2-40.3,30.3H16v-40.3h209.5V458.8z M226.3,403H16v-45.8c0-10.9,8.5-19.4,18.6-19.4h69
			v45.8c0,4.7,3.1,7.8,7.8,7.8h76.8c4.7,0,7.8-3.1,7.8-7.8v-20.2l30.3,16.3L226.3,403L226.3,403z"/>
	</g>
</g>
<g>
	<g>
		<path class="st0" d="M509.3,171L261,1.9c-2.3-1.6-6.2-1.6-8.5,0L3.5,171c-3.1,1.6-3.9,5.4-3.1,8.5s3.9,5.4,7.8,5.4h4.7v44.2
			c0,4.7,3.1,7.8,7.8,7.8s7.8-3.1,7.8-7.8v-44.2h456.1v311.9h-242c-4.7,0-7.8,3.1-7.8,7.8s3.1,7.8,7.8,7.8h249.8
			c4.7,0,7.8-3.1,7.8-7.8V185h4.7c3.1,0,6.2-2.3,7.8-5.4C513.2,176.4,511.6,172.6,509.3,171z M33,169.5l223.4-152l223.4,152H33
			L33,169.5z"/>
	</g>
</g>
<g>
	<g>
		<path class="st0" d="M345.8,382H265c-4.7,0-7.8,3.1-7.8,7.8v80.7c0,4.7,3.1,7.8,7.8,7.8h80.7c4.7,0,7.8-3.1,7.8-7.8v-80.7
			C353.5,385,349.6,382,345.8,382z M338,462.6h-65.2v-65.2H338V462.6z"/>
	</g>
</g>
<g>
	<g>
		<path class="st0" d="M459,382h-80.7c-4.7,0-7.8,3.1-7.8,7.8v80.7c0,4.7,3.1,7.8,7.8,7.8H459c4.7,0,7.8-3.1,7.8-7.8v-80.7
			C466.8,385,463.6,382,459,382z M451.3,462.6H386v-65.2h65.2V462.6z"/>
	</g>
</g>
<g>
	<g>
		<path class="st0" d="M459,268.8h-80.7c-4.7,0-7.8,3.1-7.8,7.8v80.7c0,3.9,3.1,7.8,7.8,7.8H459c4.7,0,7.8-3.1,7.8-7.8v-80.7
			C466.8,271.9,463.6,268.8,459,268.8z M451.3,349.4H386v-65.1h65.2V349.4z"/>
	</g>
</g>
<g>
	<g>
		<path class="st0" d="M345.8,205.9H265c-4.7,0-7.8,3.1-7.8,7.8v80.7c0,4.7,3.1,7.8,7.8,7.8h80.7c4.7,0,7.8-3.1,7.8-7.8v-80.7
			C353.5,208.9,350.4,205.9,345.8,205.9z M338,285.8h-65.2v-65.2H338V285.8z"/>
	</g>
</g>
<g>
	<g>
		<path class="st0" d="M258,56.2c-26.4,0-48.1,21.7-48.1,48.1s21.7,48.1,48.1,48.1s48.1-21.7,48.1-48.1S284.5,56.2,258,56.2z
			 M258,136.9c-17.8,0-32.6-14.7-32.6-32.6c0-17.8,14.7-32.6,32.6-32.6s32.6,14.7,32.6,32.6S276,136.9,258,136.9z"/>
	</g>
</g>
</svg>
