<?xml version="1.0" encoding="utf-8"?>
<!-- Generator: Adobe Illustrator 23.0.1, SVG Export Plug-In . SVG Version: 6.00 Build 0)  -->
<svg height="60" width="60" version="1.1" id="Layer_1" xmlns="http://www.w3.org/2000/svg" xmlns:xlink="http://www.w3.org/1999/xlink" x="0px" y="0px"
	 viewBox="0 0 511 511" style="enable-background:new 0 0 100 100;" xml:space="preserve">

<path class="st0" d="M505.8,110.5L306.8,1.2c-3-1.6-6.6-1.6-9.6,0l-75,41.2c-1.6,0.4-3.1,1.2-4.3,2.4L98.2,110.5
	c-3.2,1.8-5.2,5.1-5.2,8.7v132.2c-20.2,6.3-38.7,17.5-54.1,32.8c-40.1,40.1-50.3,101.3-25.4,152.2c2.4,5,8.4,7,13.3,4.6
	c5-2.4,7-8.4,4.6-13.3C10.3,384.4,19,332.5,53,298.4c21.3-21.3,49.6-33.1,79.8-33.1s58.5,11.7,79.8,33.1c21.3,21.3,33,49.6,33,79.8
	c0,30.1-11.7,58.5-33.1,79.8c-34.1,34.1-86.1,42.8-129.3,21.6c-5-2.4-10.9-0.4-13.3,4.6c-2.4,5-0.4,10.9,4.6,13.3
	c18.6,9.1,38.5,13.5,58.2,13.5c34.5,0,68.5-13.4,94-38.9c11.7-11.7,20.9-25.2,27.5-39.8l43,23.6c1.5,0.8,3.2,1.2,4.8,1.2
	s3.3-0.4,4.8-1.2l199-109.3c3.2-1.8,5.2-5.1,5.2-8.7v-69.4c0-5.5-4.5-10-10-10c-5.5,0-10,4.5-10,10v63.5l-179,98.3V234.4l59.1-32.4
	v51.4c0,3.5,1.9,6.8,4.9,8.6c1.6,0.9,3.3,1.4,5.1,1.4c1.7,0,3.3-0.4,4.8-1.2l42.6-23.5c3.2-1.8,5.2-5.1,5.2-8.7v-62.3l57.3-31.5
	v52.5c0,5.5,4.5,10,10,10c5.5,0,10-4.5,10-10v-69.4C511,115.6,509,112.3,505.8,110.5z M302,21.4l178.3,97.9L424,150.1L245.8,52.2
	L302,21.4z M302,217.2l-178.3-97.9l58.3-32l178.3,97.9L302,217.2z M381,173.8L202.8,75.9L225,63.6l178.3,97.9L381,173.8z
	 M226.7,284.3c-25.1-25.1-58.4-38.9-93.9-38.9c-6.7,0-13.3,0.5-19.9,1.5V136.1l179.1,98.3v195.8L261,413.2c3.1-11.3,4.6-23,4.6-35
	C265.6,342.7,251.8,309.4,226.7,284.3z M413.7,224l-22.7,12.5V191l22.7-12.5V224z"/>
<path class="st0" d="M501,218.5c-2.6,0-5.2,1.1-7.1,2.9s-2.9,4.4-2.9,7.1c0,2.6,1.1,5.2,2.9,7.1c1.9,1.9,4.4,2.9,7.1,2.9
	s5.2-1.1,7.1-2.9c1.9-1.9,2.9-4.4,2.9-7.1c0-2.6-1.1-5.2-2.9-7.1S503.6,218.5,501,218.5z"/>
<path class="st0" d="M99.3,388.2c2.6,0,5.1-1,7.1-2.9c3.9-3.9,3.9-10.2,0-14.1l-6.9-6.9h59c14.3,0,25.9,11.6,25.9,25.9
	c0,14.3-11.6,25.9-25.9,25.9h-35c-5.5,0-10,4.5-10,10c0,5.5,4.5,10,10,10h35c25.3,0,45.9-20.6,45.9-45.9s-20.6-45.9-45.9-45.9h-59
	l6.9-6.9c3.9-3.9,3.9-10.2,0-14.1c-3.9-3.9-10.2-3.9-14.1,0l-24,24c-3.9,3.9-3.9,10.2,0,14.1l24,23.9
	C94.2,387.2,96.7,388.2,99.3,388.2z"/>
<path class="st0" d="M46,475c-2.8,0-5.7-1.2-7.6-3.6l0,0c-3.5-4.2-3-10.5,1.2-14.1c4.2-3.6,10.5-3,14.1,1.2c3.5,4.2,3,10.5-1.2,14.1
	C50.5,474.2,48.3,475,46,475z"/>
</svg>
