<?xml version="1.0" standalone="no"?>
<!DOCTYPE svg PUBLIC "-//W3C//DTD SVG 20010904//EN"
 "http://www.w3.org/TR/2001/REC-SVG-20010904/DTD/svg10.dtd">
<svg version="1.0" xmlns="http://www.w3.org/2000/svg"
 width="240.000000pt" height="240.000000pt" viewBox="0 0 240.000000 240.000000"
 preserveAspectRatio="xMidYMid meet">

<g transform="translate(0.000000,240.000000) scale(0.100000,-0.100000)"
fill="#000000" stroke="none">
<path d="M1455 1720 c-24 -12 -162 -142 -352 -332 l-313 -313 -50 -169 c-37
-121 -48 -171 -40 -176 7 -4 55 6 109 22 53 16 125 37 161 48 l65 19 326 328
c348 349 358 363 344 441 -21 119 -145 184 -250 132z m172 -63 c18 -20 35 -48
39 -62 10 -40 -5 -93 -36 -128 l-29 -32 -97 97 c-88 87 -96 98 -83 114 32 38
72 55 123 51 41 -4 55 -10 83 -40z m-58 -245 c2 -1 -8 -16 -24 -32 l-29 -30
-98 97 -98 97 27 28 27 28 95 -92 c53 -51 97 -94 100 -96z m-254 78 c19 -21
17 -23 -208 -248 l-227 -227 -22 23 -23 22 225 225 c124 124 228 225 231 225
3 0 14 -9 24 -20z m-132 -322 l-227 -227 -23 21 -24 22 228 228 227 227 23
-21 24 -22 -228 -228z m75 -75 c-225 -225 -227 -227 -248 -208 -11 10 -20 23
-20 29 0 5 100 110 222 233 l223 223 25 -25 25 -25 -227 -227z m-348 -158 c46
-46 82 -86 79 -88 -2 -2 -36 -13 -76 -24 l-72 -20 -35 36 -35 36 21 73 c12 39
24 72 27 72 4 0 44 -38 91 -85z m-137 -151 c-35 -15 -36 -14 -23 21 10 27 11
27 31 9 l21 -19 -29 -11z"/>
<path d="M745 689 c-4 -6 -3 -15 2 -20 5 -5 203 -8 484 -7 413 3 474 5 474 18
0 13 -61 15 -477 18 -338 1 -479 -1 -483 -9z"/>
</g>
</svg>
