<?xml version="1.0" encoding="utf-8"?>
<!-- Generator: Adobe Illustrator 23.0.1, SVG Export Plug-In . SVG Version: 6.00 Build 0)  -->
<svg
height="45"
width="45"  
version="1.1"
	 id="Layer_1" xmlns:cc="http://creativecommons.org/ns#" xmlns:dc="http://purl.org/dc/elements/1.1/" xmlns:inkscape="http://www.inkscape.org/namespaces/inkscape" xmlns:rdf="http://www.w3.org/1999/02/22-rdf-syntax-ns#" xmlns:sodipodi="http://sodipodi.sourceforge.net/DTD/sodipodi-0.dtd" xmlns:svg="http://www.w3.org/2000/svg"
	 xmlns="http://www.w3.org/2000/svg" xmlns:xlink="http://www.w3.org/1999/xlink" x="0px" y="0px" viewBox="0 0 100 100"
	 style="enable-background:new 0 0 100 100;" xml:space="preserve">

<g transform="translate(0,-952.36218)">
	<path class="st0" d="M19,962.4v19h-4c-4.9,0-9,4.1-9,9v30c0,4.9,4.1,9,9,9h4v13c0,1.6,1.4,3,3,3h56c1.6,0,3-1.4,3-3v-13h4
		c4.9,0,9-4.1,9-9v-30c0-4.9-4.1-9-9-9h-4v-19c0-1.6-1.4-3-3-3H22C20.3,959.4,19,961.1,19,962.4z M25,965.4h50v16H25V965.4z
		 M15,987.4h6.8h56.5H85c1.7,0,3,1.3,3,3v30c0,1.7-1.3,3-3,3h-4v-13c0-1.6-1.4-3-3-3H22c-1.6,0-3,1.4-3,3v13h-4c-1.7,0-3-1.3-3-3
		v-30C12,988.6,13.3,987.4,15,987.4z M68,993.4c-2.2,0-4,1.8-4,4s1.8,4,4,4s4-1.8,4-4S70.2,993.4,68,993.4z M78,993.4
		c-2.2,0-4,1.8-4,4s1.8,4,4,4s4-1.8,4-4S80.2,993.4,78,993.4z M25,1013.4h50v26H25V1013.4z"/>
</g>
</svg>
