<?xml version="1.0" encoding="utf-8"?>
<!-- Generator: Adobe Illustrator 23.0.1, SVG Export Plug-In . SVG Version: 6.00 Build 0)  -->
<svg 

height="60"
width="60"
version="1.1" id="Layer_1" xmlns="http://www.w3.org/2000/svg" xmlns:xlink="http://www.w3.org/1999/xlink" x="0px" y="0px"
	 viewBox="0 0 512 512" style="enable-background:new 0 0 512 512;" xml:space="preserve">

<title>Commercial delivery</title>
<g>
	<path class="st0" d="M472.9,224.2H448c-2.9-10.6-12.5-17.9-23.4-18H398v-65c0.1-2.5-1.2-4.8-3.3-6.1L207.1,26.8
		c-2.2-1.3-4.8-1.3-7,0L12.5,135.1c-2.2,1.3-3.5,3.6-3.5,6.1v216.7c0,2.5,1.3,4.8,3.5,6.1l187.7,108.3c1.1,0.6,2.3,0.9,3.5,0.9
		c1.3,0,2.5-0.3,3.6-0.9l98.7-57v41.2c0,16.4,13.2,29.7,29.6,29.7c0.1,0,0.2,0,0.3,0h137c16.5,0.2,29.9-13.1,30.1-29.5
		c0-0.1,0-0.1,0-0.2V254.4C503,237.8,489.5,224.3,472.9,224.2z M424.8,220.2c5.6,0,10.2,4.5,10.2,10.2l0,0v0.7
		c0,5.6-4.5,10.2-10.2,10.2l0,0h-40.7c-5.6,0-10.2-4.5-10.2-10.2l0,0v-0.7c0-5.6,4.5-10.2,10.2-10.2l0,0H424.8z M203.7,40.9l78,45
		L108,186.2l-78-45L203.7,40.9z M197,454.1L23,353.8V153.3l174,100.3V454.1z M203.7,241.4L122,194.3L295.6,94l81.7,47.2L203.7,241.4
		z M306,254.4v144.8l-95,54.9V253.5l173-100.3v53h0.2c-10.9,0.1-20.5,7.4-23.4,18h-24.9C319.3,224.3,305.9,237.8,306,254.4z
		 M489,456.5c0,8.7-7.1,15.8-15.9,15.7c-0.1,0-0.1,0-0.2,0h-137c-8.6,0.1-15.7-6.7-15.9-15.4c0-0.1,0-0.2,0-0.4v-202
		c-0.1-8.8,7-16.1,15.9-16.2l0,0h25.2c3.1,10.2,12.5,17.1,23.1,17h40.4c10.6,0.1,20.1-6.8,23.1-17h25.2c8.9,0.1,16.1,7.3,16.1,16.2
		L489,456.5L489,456.5z"/>
	<path class="st0" d="M343.9,325.2h7.3c3.9,0,7-3.1,7-7s-3.1-7-7-7H351v-19h19.3c0.9,2.9,3.6,4.8,6.7,4.7c3.9,0,7-3.1,7-7v-4.7
		c0-3.9-3.2-7-7.1-7h-33c-3.9,0-7,3.2-6.9,7l0,0v33C337,322,340.1,325.2,343.9,325.2L343.9,325.2z"/>
	<path class="st0" d="M344,389.2h33c3.9,0,7-3.1,7-7v-33c0-3.9-3.1-7-7-7h-33c-3.9,0-7,3.1-7,7v33C337,386.1,340.1,389.2,344,389.2z
		 M351,356.2h19v19h-19V356.2z"/>
	<path class="st0" d="M351.3,439.2H351v-19h18.9c0.1,3.9,3.3,7,7.2,6.9c3.8-0.1,6.8-3.1,6.9-6.9v-6.7c0-3.9-3.1-7.1-7.1-7.3h-33
		c-3.9,0.1-7,3.4-6.9,7.3v33c0,3.7,3,6.8,6.7,6.8c0.1,0,0.1,0,0.2,0h7.3c3.9,0,7-3.1,7-7S355.1,439.2,351.3,439.2L351.3,439.2z"/>
	<path class="st0" d="M393,286.8l-20.5,20.5l-6.2-6.2c-2.7-2.7-7.2-2.7-9.9,0s-2.7,7.2,0,9.9l11.2,11.2c2.7,2.7,7.2,2.7,9.9,0l0,0
		l25.5-25.5c2.7-2.7,2.7-7.2,0-9.9S395.8,284.1,393,286.8L393,286.8z"/>
	<path class="st0" d="M393,416l-20.5,20.5l-6.2-6.2c-2.7-2.7-7.2-2.7-9.9,0s-2.7,7.2,0,9.9l11.2,11.2c2.7,2.7,7.2,2.7,9.9,0l0,0
		l25.5-25.5c2.7-2.7,2.7-7.2,0-9.9S395.8,413.3,393,416L393,416z"/>
	<path class="st0" d="M464.9,295.2h-44c-3.9,0-7,3.1-7,7s3.1,7,7,7h44c3.9,0,7-3.1,7-7S468.7,295.2,464.9,295.2z"/>
	<path class="st0" d="M464.9,359.2h-44c-3.9,0-7,3.1-7,7s3.1,7,7,7h44c3.9,0,7-3.1,7-7S468.7,359.2,464.9,359.2z"/>
	<path class="st0" d="M464.9,423.2h-44c-3.9,0-7,3.1-7,7s3.1,7,7,7h44c3.9,0,7-3.1,7-7S468.7,423.2,464.9,423.2z"/>
</g>
</svg>
