<?xml version="1.0" encoding="utf-8"?>
<!-- Generator: Adobe Illustrator 23.0.1, SVG Export Plug-In . SVG Version: 6.00 Build 0)  -->
<svg version="1.1" id="Layer_1" xmlns="http://www.w3.org/2000/svg" xmlns:xlink="http://www.w3.org/1999/xlink" x="0px" y="0px"
	 viewBox="0 0 85 85" style="enable-background:new 0 0 85 85;" xml:space="preserve">

<g>
	<path class="st0" d="M48.4,84.3H36.9v-8.7C25,73.9,17.4,67.3,14.2,56L14,55l19.3-3.6l0.2,0.8c1.4,4.7,4.8,7,10.4,7
		c6.1,0,6.1-2.2,6.1-2.9c0-1.1-0.4-1.8-1.2-2.4c-1-0.7-2.8-1.3-5.5-1.8C32,49.7,25,46.8,21.9,43.2c-3.1-3.6-4.6-7.8-4.6-12.5
		c0-5.2,1.7-9.8,5.1-13.8c3.2-3.8,8.1-6.3,14.5-7.4V0.8h11.5v8.4C59,10.6,66,15.9,69.3,25l0.3,0.9l-17.4,5.5l-0.3-0.8
		c-1.5-3.8-4.4-5.7-8.9-5.7c-5.2,0-5.2,2.2-5.2,3c0,0.7,0.2,1.3,0.8,1.8c0.3,0.3,1.3,0.9,5.3,1.8c7.2,1.6,12.5,3,15.6,4.3
		c3.3,1.3,6.1,3.6,8.2,6.7c2.2,3.1,3.3,6.8,3.3,11.1c0,5.9-2.1,11-6.4,15c-4,3.8-9.5,6.2-16.4,7.1L48.4,84.3L48.4,84.3z M38.8,82.4
		h7.7v-8.5l0.9-0.1c6.8-0.8,12.3-3,16.1-6.7c3.8-3.6,5.8-8.2,5.8-13.6c0-3.8-1-7.2-2.9-10c-2-2.8-4.4-4.8-7.4-6
		c-3.1-1.2-8.2-2.6-15.3-4.2c-4.5-1-5.7-1.8-6.2-2.3c-0.9-0.9-1.3-1.9-1.3-3.2c0-2.3,1.2-4.9,7.1-4.9c5,0,8.5,2.1,10.3,6.1l13.8-4.3
		c-3.3-8.1-9.8-12.6-19.9-13.7l-0.9-0.1V2.7h-7.7v8.4L38,11.2c-6.3,1-11.1,3.3-14.2,6.9c-3.1,3.6-4.6,7.9-4.6,12.6
		c0,4.2,1.4,8,4.2,11.3c2.8,3.3,9.6,6,20.3,8.2c2.9,0.6,5,1.3,6.2,2.1c1.3,0.9,2.1,2.3,2.1,4c0,2.2-1.4,4.8-8,4.8
		c-6.2,0-10.2-2.5-12-7.5l-15.6,2.9c3.2,10.3,10.2,15.9,21.6,17.3l0.8,0.1L38.8,82.4L38.8,82.4z "  fill=""/>
</g>
</svg>
