<?xml version="1.0" encoding="utf-8"?>
<!-- Generator: Adobe Illustrator 23.0.1, SVG Export Plug-In . SVG Version: 6.00 Build 0)  -->
<svg width="30" height="30" version="1.1" id="Layer_1" xmlns="http://www.w3.org/2000/svg" xmlns:xlink="http://www.w3.org/1999/xlink" x="0px" y="0px"
	 viewBox="0 0 100 100" style="enable-background:new 0 0 100 100;" xml:space="preserve">
<style type="text/css">
	.st0{fill-rule:evenodd;clip-rule:evenodd;fill:;}
</style>
<path class="st0" d="M79,56v-2h4.9l2.6-24.8H26.4L28.1,45h5.2v2h-5l1.9,17.6h47.5v2H30.5l0.3,3h51.5L83.8,56H79z M84,79.8
	c1.7,1.7,2.6,3.8,2.6,6.3c0,2.4-0.9,4.4-2.7,6.1c-1.6,1.7-3.7,2.6-6.1,2.6s-4.5-0.8-6.2-2.6c-1.7-1.8-2.5-3.8-2.5-6.1
	c0-2.4,0.8-4.5,2.5-6.2s3.8-2.6,6.2-2.6C80.3,77.3,82.3,78,84,79.8z M75.1,83.3c-0.7,0.8-1,1.7-1,2.7s0.4,1.9,1.1,2.6
	s1.6,1.1,2.7,1.1s1.9-0.3,2.6-1.1c0.8-0.8,1.2-1.6,1.2-2.6s-0.4-1.9-1.2-2.7c-0.7-0.7-1.5-1.1-2.6-1.1S75.9,82.6,75.1,83.3z
	 M86.8,74.6H26.2l-5.3-50.2H21l-1.6-14.2H7.9v-5H24l2,19h66.2L86.8,74.6z M59.9,58.8h-7.5V48.5h-7.6L56,34l11.3,14.7h-7.5V58.8
	L59.9,58.8z M27.1,86c0-2.4,0.9-4.5,2.6-6.2s3.8-2.6,6.2-2.6c2.5,0,4.6,0.9,6.2,2.6c1.7,1.7,2.6,3.8,2.6,6.2c0,2.4-0.8,4.5-2.6,6.1
	c-1.6,1.7-3.7,2.6-6.2,2.6c-2.4,0-4.5-0.8-6.2-2.6S27.1,88.3,27.1,86z M35.9,82.3c-1.1,0-2,0.4-2.7,1.1c-0.7,0.8-1.1,1.7-1.1,2.7
	s0.4,1.9,1.1,2.6c0.7,0.7,1.6,1.1,2.6,1.1s1.9-0.3,2.6-1.1l0.1-0.1c0.7-0.7,1.1-1.6,1.1-2.6c0-1.1-0.4-2-1.1-2.7v-0.1
	C37.8,82.5,37,82.3,35.9,82.3z"/>
</svg>
