<?xml version="1.0" encoding="utf-8"?>
<!-- Generator: Adobe Illustrator 23.0.1, SVG Export Plug-In . SVG Version: 6.00 Build 0)  -->
<svg version="1.1" id="Layer_1" xmlns="http://www.w3.org/2000/svg" xmlns:xlink="http://www.w3.org/1999/xlink" x="0px" y="0px"
	 viewBox="0 0 79.4 79.4" style="enable-background:new 0 0 79.4 79.4;" xml:space="preserve">
<style type="text/css">
	.st0{display:none;}
	.st1{display:inline;}
</style>
<g class="st0">
	<g class="st1">
		<rect x="9.7" y="1.7" class="st2" width="60" height="60"/>
		<line class="st2" x1="39.7" y1="1.7" x2="39.7" y2="61.7"/>
		<line class="st2" x1="69.7" y1="31.7" x2="9.7" y2="31.7"/>
		<line class="st2" x1="9.7" y1="1.7" x2="69.7" y2="61.7"/>
		<rect x="17.7" y="9.7" class="st2" width="44" height="44"/>
		<line class="st2" x1="69.7" y1="1.7" x2="9.7" y2="61.7"/>
		<line class="st2" x1="9.7" y1="31.7" x2="39.7" y2="1.7"/>
		<line class="st2" x1="39.7" y1="1.7" x2="69.7" y2="31.7"/>
		<line class="st2" x1="69.7" y1="31.7" x2="39.7" y2="61.7"/>
		<line class="st2" x1="39.7" y1="61.7" x2="9.7" y2="31.7"/>
		<circle class="st2" cx="39.7" cy="31.7" r="21"/>
	</g>
</g>
<g>
	<path d="M37.7,45.4v-6c1.7,0,3,1.3,3,3h2c0-2.8-2.2-5-5-5v-2h-2v2c-2.8,0-5,2.2-5,5s2.2,5,5,5v6c-1.7,0-3-1.3-3-3h-2
		c0,2.8,2.2,5,5,5v2h2v-2c2.8,0,5-2.2,5-5S40.5,45.4,37.7,45.4z M32.7,42.4c0-1.7,1.3-3,3-3v6C34,45.4,32.7,44.1,32.7,42.4z
		 M37.7,53.4v-6c1.7,0,3,1.3,3,3S39.4,53.4,37.7,53.4z" />
	<path d="M48.7,58.4c-2.2,0-4-1.8-4-4s1.8-4,4-4s4,1.8,4,4S50.9,58.4,48.7,58.4z M48.7,52.4c-1.1,0-2,0.9-2,2s0.9,2,2,2s2-0.9,2-2
		S49.8,52.4,48.7,52.4z" />
	<path d="M59.7,67.4c-2.2,0-4-1.8-4-4s1.8-4,4-4s4,1.8,4,4S61.9,67.4,59.7,67.4z M59.7,61.4c-1.1,0-2,0.9-2,2c0,1.1,0.9,2,2,2
		s2-0.9,2-2C61.7,62.3,60.8,61.4,59.7,61.4z" />
	<path d="M46.5,64.4H19.2c-0.8,0-1.5-0.7-1.5-1.5s0.7-1.5,1.5-1.5h1.4l1.4-15c0.4-5.4,3.1-10.5,7.3-14l3.8-3.1h7.3l3.8,3.1
		c4.2,3.4,6.9,8.5,7.3,14l0.3,2.7c0.9,0.5,1.7,1.3,2.2,2.2l-0.5-5.1c-0.5-6-3.4-11.6-8-15.3l-2.8-2.3c0.7-0.6,1.1-1.4,1.1-2.3
		c0-1.2-0.7-2.2-1.7-2.7c0.8-2.2,2.9-4.7,6.4-7.5l1.2-1l-6.4-3.2l0.9-2.5h-15l1.1,2.6l-6.4,3.2l1.2,1c3.4,2.9,5.6,5.4,6.4,7.5
		c-1,0.5-1.8,1.5-1.8,2.7c0,0.9,0.4,1.7,1.1,2.3L28,31c-4.6,3.8-7.5,9.4-8,15.3l-1.2,13.1c-1.8,0.2-3.1,1.7-3.1,3.5
		c0,1.9,1.6,3.5,3.5,3.5h25.9L46.5,64.4z M40.7,27.4h-8c-0.6,0-1-0.4-1-1s0.4-1,1-1h8c0.6,0,1,0.4,1,1S41.3,27.4,40.7,27.4z
		 M27.5,15.6l3.6-1.8l1.7,4l1.8-0.8l-2.4-5.6h9L38.8,17l1.8,0.8l1.7-4l3.6,1.8c-3.2,2.8-5.2,5.4-6,7.8h-6.5
		C32.7,21.1,30.8,18.5,27.5,15.6z" />
	<rect x="41.5" y="58.4" transform="matrix(0.5733 -0.8194 0.8194 0.5733 -25.7637 69.3332)" width="24.4" height="2" />
</g>
</svg>
